<svg xmlns="http://www.w3.org/2000/svg" xmlns:xlink="http://www.w3.org/1999/xlink" viewBox="0 0 109.48 15.35"><defs><style>.cls-1{fill:url(#Layer_4);}.cls-2{fill:url(#Layer_4-2);}.cls-3{fill:url(#Layer_4-3);}.cls-4{fill:url(#Layer_4-4);}.cls-5{fill:#fefdf3;opacity:0.55;}.cls-6{fill:#de3c4a;}</style><linearGradient id="Layer_4" x1="11.52" y1="0.02" x2="11.52" y2="7.67" gradientUnits="userSpaceOnUse"><stop offset="0" stop-color="#de3c4b"/><stop offset="1" stop-color="#fefdf3"/></linearGradient><linearGradient id="Layer_4-2" x1="0.01" y1="3.84" x2="7.65" y2="3.84" xlink:href="#Layer_4"/><linearGradient id="Layer_4-3" x1="7.68" y1="11.52" x2="15.35" y2="11.52" xlink:href="#Layer_4"/><linearGradient id="Layer_4-4" x1="3.84" y1="15.35" x2="3.84" y2="7.69" xlink:href="#Layer_4"/></defs><title>test</title><g id="Layer_2" data-name="Layer 2"><g id="Lager_1" data-name="Lager 1"><path class="cls-1" d="M15.35,7.68V0h-3A4.68,4.68,0,0,0,7.68,4.66v3Z"/><path class="cls-2" d="M7.68,0A7.68,7.68,0,0,0,0,7.68H7.68Z"/><path class="cls-3" d="M7.68,7.68v7.68a7.68,7.68,0,0,0,7.68-7.68Z"/><path class="cls-4" d="M0,7.68a7.68,7.68,0,0,0,7.68,7.68V7.68Z"/><path class="cls-5" d="M7.68,9.3V7.68h5.94a6,6,0,1,0-.23,1.63Z"/><path class="cls-6" d="M24.5,11.65a4,4,0,0,1-1.45-.27,4,4,0,0,1-2.24-2.24,3.91,3.91,0,0,1-.27-1.66A3.83,3.83,0,0,1,21.8,4.81a3.95,3.95,0,0,1,5.5.07c0,.11,0,.14,0,.17l-.61.6h-.17a2.75,2.75,0,0,0-2-.82H24.4a2.87,2.87,0,0,0-2.76,2.64A2.86,2.86,0,0,0,26.4,9.83l0-1.28-1.22,0A.11.11,0,0,1,25,8.48V7.63a.11.11,0,0,1,.12-.12h2.2a.11.11,0,0,1,.12.12v2.63l-.11.17a3.94,3.94,0,0,1-2.66,1.22Z"/><path class="cls-6" d="M24.5,3.78h.05a3.76,3.76,0,0,1,2.71,1.14s0,.07,0,.1l-.61.6,0,0-.05,0a2.79,2.79,0,0,0-2-.83H24.4A2.92,2.92,0,0,0,21.6,7.46a2.91,2.91,0,0,0,4.84,2.41V8.55H25.16a.06.06,0,0,1-.07-.07V7.63a.06.06,0,0,1,.07-.07h2.2a.06.06,0,0,1,.07.07v2.63a.07.07,0,0,1,0,0l-.08.08a3.88,3.88,0,0,1-2.62,1.21H24.5a3.9,3.9,0,0,1-1.43-.27,3.91,3.91,0,0,1-2.21-2.21,3.85,3.85,0,0,1-.27-1.64,3.77,3.77,0,0,1,1.24-2.64A3.77,3.77,0,0,1,24.5,3.78m0-.1a3.89,3.89,0,0,0-2.74,1.09A3.88,3.88,0,0,0,20.5,7.48a4,4,0,0,0,.28,1.68A4,4,0,0,0,23,11.43a4,4,0,0,0,1.47.28h.22a4,4,0,0,0,2.69-1.24l.08-.08a.16.16,0,0,0,0-.12V7.63a.16.16,0,0,0-.17-.17h-2.2a.16.16,0,0,0-.17.17v.85a.16.16,0,0,0,.17.17h1.17V9.82A2.81,2.81,0,0,1,21.7,7.47,2.82,2.82,0,0,1,24.4,4.88h.12a2.7,2.7,0,0,1,2,.8.17.17,0,0,0,.12.05.17.17,0,0,0,.11,0l.62-.6A.18.18,0,0,0,27.38,5a.16.16,0,0,0-.05-.12,3.87,3.87,0,0,0-2.78-1.17Z"/><path class="cls-6" d="M33,11.65a4,4,0,0,1-4-4,3.84,3.84,0,0,1,1.16-2.8,4,4,0,0,1,5.6,0A3.83,3.83,0,0,1,37,7.69a4,4,0,0,1-4,4Zm0-6.83a2.86,2.86,0,0,0-2.86,2.86,2.87,2.87,0,1,0,4.89-2A2.78,2.78,0,0,0,33,4.82Z"/><path class="cls-6" d="M33,3.77a3.77,3.77,0,0,1,2.77,1.15,3.77,3.77,0,0,1,1.15,2.77,3.77,3.77,0,0,1-1.15,2.77,3.91,3.91,0,0,1-5.53,0,3.77,3.77,0,0,1-1.15-2.77,3.77,3.77,0,0,1,1.15-2.77A3.77,3.77,0,0,1,33,3.77m0,6.83a2.91,2.91,0,0,0,2.92-2.91,2.91,2.91,0,1,0-5.83,0A2.91,2.91,0,0,0,33,10.6m0-6.93a3.88,3.88,0,0,0-2.84,1.18A3.88,3.88,0,0,0,29,7.69a3.88,3.88,0,0,0,1.18,2.84,4,4,0,0,0,5.67,0A3.88,3.88,0,0,0,37,7.69a3.88,3.88,0,0,0-1.18-2.84A3.88,3.88,0,0,0,33,3.67Zm0,6.83a2.81,2.81,0,0,1-2.81-2.81,2.81,2.81,0,1,1,4.81,2,2.74,2.74,0,0,1-2,.82Z"/><path class="cls-6" d="M44.37,11.65a3.66,3.66,0,0,1-1.65-.39,3.6,3.6,0,0,1-.51-.32L42,10.81l-.11-.1c0-.12,0-.15,0-.18l.62-.59h.17l.08.07.11.08a2.65,2.65,0,0,0,.35.21,2.58,2.58,0,0,0,1.11.25c1,0,1.5-.37,1.5-1.13a1,1,0,0,0-.38-.75A4.7,4.7,0,0,0,44.36,8l-.56-.26-.32-.16a3.4,3.4,0,0,1-.63-.42,1.87,1.87,0,0,1-.7-1.46,1.84,1.84,0,0,1,.64-1.48,2.56,2.56,0,0,1,1.72-.54A3.3,3.3,0,0,1,46,4.06a3,3,0,0,1,.46.28l.16.11.1.1c0,.12,0,.15,0,.18l-.62.58h-.16l-.17-.14a1.88,1.88,0,0,0-.3-.17,2.19,2.19,0,0,0-.94-.21c-.85,0-1.26.3-1.26.92a.8.8,0,0,0,.32.63,4,4,0,0,0,1,.54l.27.13.32.14.35.18a4.06,4.06,0,0,1,.7.46,2.14,2.14,0,0,1,.08,3.23A2.83,2.83,0,0,1,44.37,11.65Z"/><path class="cls-6" d="M44.5,3.77A3.23,3.23,0,0,1,46,4.11a3,3,0,0,1,.45.28l.15.11.1.09s0,.07,0,.1L46.36,5,46,5.28l-.05,0,0,0-.07-.07-.1-.08A2,2,0,0,0,45.47,5a2.23,2.23,0,0,0-1-.21q-1.31,0-1.31,1a.85.85,0,0,0,.33.67,4.06,4.06,0,0,0,1,.55h0l.25.12.16.07.16.07.35.18a4,4,0,0,1,.7.46,2,2,0,0,1,.76,1.57A2,2,0,0,1,46.23,11a2.77,2.77,0,0,1-1.86.58,3.51,3.51,0,0,1-2.13-.7l-.17-.13-.11-.1a.06.06,0,0,1,0-.1l.62-.58,0,0,0,0,.08.07.12.09a2.67,2.67,0,0,0,.36.21,2.61,2.61,0,0,0,1.13.25q1.55,0,1.55-1.18a1,1,0,0,0-.39-.79A4.78,4.78,0,0,0,44.38,8h0l-.26-.13L44,7.8l-.15-.07-.32-.16a3.38,3.38,0,0,1-.62-.41,1.81,1.81,0,0,1-.68-1.43,1.79,1.79,0,0,1,.62-1.44,2.5,2.5,0,0,1,1.68-.53m0-.1a2.61,2.61,0,0,0-1.75.55,1.89,1.89,0,0,0-.65,1.51,1.92,1.92,0,0,0,.72,1.5,3.49,3.49,0,0,0,.64.42l.32.16.15.07.14.06.25.12h0a4.71,4.71,0,0,1,1.11.63.92.92,0,0,1,.36.72c0,.72-.47,1.08-1.45,1.08a2.44,2.44,0,0,1-1.43-.44L42.83,10l0,0,0,0a.17.17,0,0,0-.23,0l-.63.59a.18.18,0,0,0-.06.13.17.17,0,0,0,.06.12l.11.1.18.13a3.6,3.6,0,0,0,2.19.71,2.88,2.88,0,0,0,1.92-.61,2.19,2.19,0,0,0-.08-3.31,4.16,4.16,0,0,0-.71-.47l-.35-.18L45,7.06,44.83,7l-.25-.12a4.23,4.23,0,0,1-1-.54.75.75,0,0,1-.3-.59c0-.59.39-.87,1.21-.87a2.14,2.14,0,0,1,.92.2,1.94,1.94,0,0,1,.29.16l.1.07.06.06a.17.17,0,0,0,.24,0l.31-.3.31-.29a.17.17,0,0,0,.06-.13.16.16,0,0,0-.07-.12l-.09-.08-.17-.13A3.08,3.08,0,0,0,46,4a3.35,3.35,0,0,0-1.5-.35Z"/><path class="cls-6" d="M49,11.65,49,11.53V3.84a.11.11,0,0,1,.12-.12h5.09a.11.11,0,0,1,.12.12v.85a.11.11,0,0,1-.12.12H50l0,2.37,3,0a.11.11,0,0,1,.12.12v.85a.11.11,0,0,1-.12.12H50l0,2.37,4.11,0a.11.11,0,0,1,.12.12v.85a.11.11,0,0,1-.12.12Z"/><path class="cls-6" d="M54.16,3.77a.06.06,0,0,1,.07.07v.85a.06.06,0,0,1-.07.07H50V7.19h3a.06.06,0,0,1,.07.07v.85a.06.06,0,0,1-.07.07H50v2.42h4.16a.06.06,0,0,1,.07.07v.85a.06.06,0,0,1-.07.07H49.07a.06.06,0,0,1-.07-.07V3.84a.06.06,0,0,1,.07-.07h5.09m0-.1H49.07a.16.16,0,0,0-.17.17v7.69a.16.16,0,0,0,.17.17h5.09a.16.16,0,0,0,.17-.17v-.85a.16.16,0,0,0-.17-.17H50.1V8.28H53a.16.16,0,0,0,.17-.17V7.26A.16.16,0,0,0,53,7.09H50.1V4.86h4.06a.16.16,0,0,0,.17-.17V3.84a.16.16,0,0,0-.17-.17Z"/><path class="cls-6" d="M56.13,11.65l-.07-.12V3.84a.11.11,0,0,1,.12-.12h5.09a.11.11,0,0,1,.12.12v.85a.11.11,0,0,1-.12.12H57.1l0,2.37,3,0a.11.11,0,0,1,.12.12v.85a.11.11,0,0,1-.12.12h-3l0,2.37,4.11,0a.11.11,0,0,1,.12.12v.85a.11.11,0,0,1-.12.12Z"/><path class="cls-6" d="M61.26,3.77a.06.06,0,0,1,.07.07v.85a.06.06,0,0,1-.07.07H57.1V7.19h3a.06.06,0,0,1,.07.07v.85a.06.06,0,0,1-.07.07h-3v2.42h4.16a.06.06,0,0,1,.07.07v.85a.06.06,0,0,1-.07.07H56.18a.06.06,0,0,1-.07-.07V3.84a.06.06,0,0,1,.07-.07h5.09m0-.1H56.18a.16.16,0,0,0-.17.17v7.69a.16.16,0,0,0,.17.17h5.09a.16.16,0,0,0,.17-.17v-.85a.16.16,0,0,0-.17-.17H57.2V8.28h2.91a.16.16,0,0,0,.17-.17V7.26a.16.16,0,0,0-.17-.17H57.2V4.86h4.06a.16.16,0,0,0,.17-.17V3.84a.16.16,0,0,0-.17-.17Z"/><path class="cls-6" d="M70.61,3.76a.07.07,0,0,1,.08.08v.37a.07.07,0,0,1-.08.08h-2.2v7.24a.07.07,0,0,1-.08.08H68s-.07,0-.07-.08V4.28h-2.2a.07.07,0,0,1-.08-.08V3.84a.07.07,0,0,1,.08-.08Z"/><path class="cls-6" d="M74.15,3.76a.07.07,0,0,1,.07,0l3.19,7.69a.07.07,0,0,1,0,.07.07.07,0,0,1-.07,0H77a.07.07,0,0,1-.07,0l-1.33-3.2H72.28l-1.33,3.2a.07.07,0,0,1-.07,0h-.39a.08.08,0,0,1-.07,0,.07.07,0,0,1,0-.07L73.61,3.8a.07.07,0,0,1,.07,0Zm1.19,4.07L73.92,4.41,72.49,7.83Z"/><path class="cls-6" d="M79,11.6a.07.07,0,0,1-.08-.08V3.83s0-.07.08-.07h.37c.05,0,.08,0,.08.07v7.26h3.67a.07.07,0,0,1,.08.08v.37a.07.07,0,0,1-.08.08Z"/><path class="cls-6" d="M85.28,4.29V7.43h3a.07.07,0,0,1,.08.08v.36a.07.07,0,0,1-.08.08h-3v3.14h4.45a.07.07,0,0,1,.08.08v.36a.07.07,0,0,1-.08.08H84.85a.07.07,0,0,1-.08-.08V3.85a.07.07,0,0,1,.08-.08h4.89a.07.07,0,0,1,.08.08v.37a.07.07,0,0,1-.08.08Z"/><path class="cls-6" d="M97.26,11.52a.07.07,0,0,1-.08.08h0a.07.07,0,0,1-.06,0L92.28,5.15v6.37a.07.07,0,0,1-.08.08h-.36a.07.07,0,0,1-.08-.08V3.85c0-.05,0-.08.08-.08h0a.07.07,0,0,1,.06,0l4.83,6.45V3.85a.07.07,0,0,1,.08-.08h.37a.07.07,0,0,1,.08.08Z"/><path class="cls-6" d="M103.73,3.76a.07.07,0,0,1,.08.08v.37a.07.07,0,0,1-.08.08h-2.2v7.24a.07.07,0,0,1-.08.08h-.37s-.07,0-.07-.08V4.28h-2.2a.07.07,0,0,1-.08-.08V3.84a.07.07,0,0,1,.08-.08Z"/><path class="cls-6" d="M109,4.89a.06.06,0,0,1-.1,0l-.08-.07-.11-.08-.28-.19a2.8,2.8,0,0,0-1.19-.32h-.53a2.29,2.29,0,0,0-.54.13,1.23,1.23,0,0,0-.47.3,1.09,1.09,0,0,0-.28.49l0,.08a.3.3,0,0,0,0,.08,1,1,0,0,0,0,.15v.08h0v0h0v.3l0,.07,0,.07,0,0,0,0,0,.07,0,.07,0,0,0,0,0,.06a2.35,2.35,0,0,0,.55.43,7.39,7.39,0,0,0,.68.33l.09,0,.09,0,.18.08.35.16a5.72,5.72,0,0,1,.73.38,3,3,0,0,1,.66.55,1.74,1.74,0,0,1,.39.79l0,.11a.76.76,0,0,1,0,.11v.18h0V9.8l0,.11,0,.11a1.8,1.8,0,0,1-.34.76,1.82,1.82,0,0,1-.62.51,2.77,2.77,0,0,1-.69.24l-.08,0h-.09l-.16,0-.16,0h-.76a3.46,3.46,0,0,1-.54-.1,3.61,3.61,0,0,1-.83-.34l-.28-.18-.2-.15-.11-.09a.07.07,0,0,1,0-.11l.27-.25a.07.07,0,0,1,.1,0l.07.06.16.12.24.15a2.92,2.92,0,0,0,.71.3,3.41,3.41,0,0,0,.47.1h.81l.14,0,.07,0h.08a2.27,2.27,0,0,0,.55-.19,1.29,1.29,0,0,0,.71-.92V9.76a.18.18,0,0,0,0,0V9.56h0V9.42s0,0,0-.08V9.27a1.27,1.27,0,0,0-.28-.57,3.56,3.56,0,0,0-1.21-.8l-.37-.16-.18-.09-.08,0-.09,0A7.12,7.12,0,0,1,106,7.2a2.92,2.92,0,0,1-.66-.52l-.07-.08,0,0,0,0-.12-.19,0-.05,0,0a.63.63,0,0,1,0-.1l0-.1V5.89l0-.11V5.61h0v0h0v-.1c0-.05,0-.12,0-.21l0-.1,0-.1a1.49,1.49,0,0,1,.4-.71,1.89,1.89,0,0,1,.63-.41,2.8,2.8,0,0,1,.66-.16h.61a3.26,3.26,0,0,1,.55.07,3.32,3.32,0,0,1,.84.31l.28.17.2.14.1.09a.07.07,0,0,1,0,.11Z"/></g></g></svg>